<?xml version="1.0" encoding="UTF-8"?> <!-- Generator: Adobe Illustrator 24.1.2, SVG Export Plug-In . SVG Version: 6.00 Build 0) --> <svg xmlns="http://www.w3.org/2000/svg" xmlns:xlink="http://www.w3.org/1999/xlink" id="Layer_1" x="0px" y="0px" viewBox="0 0 263 223" style="enable-background:new 0 0 263 223;" xml:space="preserve"> <style type="text/css"> .st0{fill:#EBA015;} </style> <path class="st0" d="M254,29h-30.4V8.6c0-4.7-4.4-8.6-9.8-8.6h-9.7c-5.4,0-9.8,3.9-9.8,8.6V29H68.6V8.6c0-4.7-4.4-8.6-9.8-8.6h-9.7 c-5.4,0-9.8,3.9-9.8,8.6V29H9c-5,0-9,3.6-9,7.9v174.7c0,6.3,5.1,11.3,11.3,11.3h240.3c6.3,0,11.3-5.1,11.3-11.3V37 C263,32.6,258.9,29,254,29z M254,211.7c0,1.3-1.1,2.3-2.3,2.3H11.3c-1.3,0-2.3-1.1-2.3-2.3V66.1h245L254,211.7z"></path> </svg> 