<?xml version="1.0" encoding="UTF-8"?> <!-- Generator: Adobe Illustrator 24.1.2, SVG Export Plug-In . SVG Version: 6.00 Build 0) --> <svg xmlns="http://www.w3.org/2000/svg" xmlns:xlink="http://www.w3.org/1999/xlink" id="Layer_1" x="0px" y="0px" viewBox="0 0 263 194" style="enable-background:new 0 0 263 194;" xml:space="preserve"> <style type="text/css"> .st0{fill:#EBA015;} </style> <path class="st0" d="M251.7,0H11.3C5.1,0,0,5.1,0,11.3v171.3c0,6.3,5.1,11.3,11.3,11.3h240.3c6.3,0,11.3-5.1,11.3-11.3V11.3 C263,5.1,257.9,0,251.7,0z M254,182.7c0,1.3-1.1,2.3-2.3,2.3H11.3c-1.3,0-2.3-1.1-2.3-2.3V82h245V182.7z M9,41V11.3 C9,10.1,10.1,9,11.3,9h240.3c1.3,0,2.3,1.1,2.3,2.3V41H9z"></path> </svg> 