<?xml version="1.0" encoding="UTF-8"?> <svg xmlns="http://www.w3.org/2000/svg" width="105" height="35" viewBox="0 0 105 35" fill="none"> <path d="M10.6085 8.70605C12.4295 8.70605 14.4862 9.1223 16.193 9.79234V13.6062C14.4291 12.7974 12.5509 12.2695 10.6085 12.2695C6.99496 12.2695 3.99559 14.635 3.99559 18.953C3.99559 23.2711 6.99139 25.6366 10.6085 25.6366C12.5474 25.6366 14.4291 25.1087 16.193 24.2999V28.1138C14.4898 28.7838 12.4331 29.2 10.6085 29.2C4.05629 29.2034 0 24.5232 0 18.9564C0 13.3862 4.05629 8.70605 10.6085 8.70605Z" fill="black"></path> <path d="M37.8349 8.72852V29.033H34.0142V12.1514H28.2262C27.7548 24.4821 26.1409 28.7157 20.4671 29.6464L19.4102 26.5408C23.6985 25.73 24.1413 20.6821 24.5805 8.72852H37.8349V8.72852Z" fill="black"></path> <path d="M42.0898 3.45811V34.4965L61.5322 31.0383V0L42.0898 3.45811ZM54.7479 3.56738C55.8048 3.56738 56.6296 4.40988 56.6296 5.39338C56.6296 6.3522 55.8084 7.16297 54.7479 7.16297C53.7767 7.16297 52.9268 6.3522 52.9268 5.39338C52.9268 4.40635 53.7802 3.56738 54.7479 3.56738ZM48.9598 3.56738C49.9882 3.56738 50.8094 4.40988 50.8094 5.39338C50.8094 6.3522 49.9882 7.16297 48.9598 7.16297C47.9886 7.16297 47.1388 6.3522 47.1388 5.39338C47.1388 4.40635 47.9922 3.56738 48.9598 3.56738ZM57.7758 29.0361H45.8462V8.73163H57.4509V12.1545H49.6668V16.8534H56.776V20.2763H49.6668V25.6132H57.7758V29.0361Z" fill="#1BA7E3"></path> <path d="M69.3245 29.035H65.5039V8.73047H72.2346C75.8767 8.73047 79.3439 10.9054 79.3439 15.1426C79.3439 19.5807 75.9053 21.5829 72.2632 21.5829H69.3245V29.035ZM69.3245 18.5337H71.4705C74.0271 18.5337 75.3483 17.314 75.3483 15.1391C75.3483 12.9923 74.0271 11.8607 71.4705 11.8607H69.3245V18.5337Z" fill="black"></path> <path d="M93.4308 24.9741L86.9964 13.863V29.035H83.1758V8.73047H88.1105L93.87 18.4209L99.6295 8.73047H104.564V29.035H100.744V13.863L94.3092 24.9741H93.4308Z" fill="black"></path> </svg> 